<?xml version="1.0" encoding="UTF-8" standalone="no"?>
<svg width="1875px" height="1785px" viewBox="0 0 1875 1785" version="1.1" xmlns="http://www.w3.org/2000/svg" xmlns:xlink="http://www.w3.org/1999/xlink" xmlns:sketch="http://www.bohemiancoding.com/sketch/ns">
    <!-- Generator: Sketch 3.5.2 (25235) - http://www.bohemiancoding.com/sketch -->
    <title>arrow_down</title>
    <desc>Created with Sketch.</desc>
    <defs></defs>
    <g id="Page-1" stroke="none" stroke-width="1" fill="none" fill-rule="evenodd" sketch:type="MSPage">
        <g id="arrow_down" sketch:type="MSLayerGroup" fill="#000000">
            <g id="Page-1" sketch:type="MSShapeGroup">
                <path d="M1875,847.24005 C1875,889.762515 1860.15725,925.866495 1830.47176,955.55199 L1047.01541,1740.21181 C1015.72529,1769.8973 979.220153,1784.74005 937.5,1784.74005 C894.977535,1784.74005 858.873555,1769.8973 829.18806,1740.21181 L45.7317074,955.55199 C15.2439025,926.668807 0,890.564827 0,847.24005 C0,804.717585 15.2439025,768.212452 45.7317074,737.724647 L134.78819,647.464698 C166.078306,617.779204 202.583441,602.936457 244.303595,602.936457 C286.826059,602.936457 322.930039,617.779204 352.615533,647.464698 L706.434532,1001.2837 L706.434532,154.043646 C706.434532,112.323492 721.678434,76.219512 752.16624,45.7317073 C782.65404,15.2439025 818.75802,0 860.47818,0 L1014.52182,0 C1056.24198,0 1092.34596,15.2439025 1122.83376,45.7317073 C1153.32157,76.219512 1168.56547,112.323492 1168.56547,154.043646 L1168.56547,1001.2837 L1522.38447,647.464698 C1552.06997,617.779204 1588.17394,602.936457 1630.6964,602.936457 C1672.41656,602.936457 1708.9217,617.779204 1740.21181,647.464698 L1830.47176,737.724647 C1860.15725,769.014765 1875,805.519898 1875,847.24005 L1875,847.24005 L1875,847.24005 Z" id="Shape"></path>
            </g>
        </g>
    </g>
</svg>