<?xml version="1.0" encoding="UTF-8" standalone="no"?>
<svg width="25px" height="24px" viewBox="0 0 25 24" version="1.1" xmlns="http://www.w3.org/2000/svg" xmlns:xlink="http://www.w3.org/1999/xlink" xmlns:sketch="http://www.bohemiancoding.com/sketch/ns">
    <!-- Generator: Sketch 3.5.2 (25235) - http://www.bohemiancoding.com/sketch -->
    <title>Shape</title>
    <desc>Created with Sketch.</desc>
    <defs></defs>
    <g id="Page-1" stroke="none" stroke-width="1" fill="none" fill-rule="evenodd" sketch:type="MSPage">
        <path d="M25,11.296534 C25,11.8635002 24.8020967,12.3448866 24.4062901,12.7406932 L13.9602054,23.2028241 C13.5430039,23.5986307 13.0562687,23.796534 12.5,23.796534 C11.9330338,23.796534 11.4516474,23.5986307 11.0558408,23.2028241 L0.609756098,12.7406932 C0.203252033,12.3555841 0,11.8741977 0,11.296534 C0,10.7295678 0.203252033,10.2428327 0.609756098,9.83632863 L1.79717587,8.63286264 C2.21437741,8.23705605 2.70111254,8.03915276 3.25738126,8.03915276 C3.82434745,8.03915276 4.30573385,8.23705605 4.70154044,8.63286264 L9.41912709,13.3504493 L9.41912709,2.05391528 C9.41912709,1.49764656 9.62237912,1.01626016 10.0288832,0.609756098 C10.4353872,0.203252033 10.9167736,0 11.4730424,0 L13.5269576,0 C14.0832264,0 14.5646128,0.203252033 14.9711168,0.609756098 C15.3776209,1.01626016 15.5808729,1.49764656 15.5808729,2.05391528 L15.5808729,13.3504493 L20.2984596,8.63286264 C20.6942662,8.23705605 21.1756525,8.03915276 21.7426187,8.03915276 C22.2988875,8.03915276 22.7856226,8.23705605 23.2028241,8.63286264 L24.4062901,9.83632863 C24.8020967,10.2535302 25,10.7402653 25,11.296534 L25,11.296534 Z" id="Shape" fill="#000000" sketch:type="MSShapeGroup"></path>
    </g>
</svg>