<?xml version="1.0" encoding="UTF-8" standalone="no"?>
<svg width="4963px" height="1793px" viewBox="0 0 4963 1793" version="1.1" xmlns="http://www.w3.org/2000/svg" xmlns:xlink="http://www.w3.org/1999/xlink" xmlns:sketch="http://www.bohemiancoding.com/sketch/ns">
    <!-- Generator: Sketch 3.5.2 (25235) - http://www.bohemiancoding.com/sketch -->
    <title>discogs_logo</title>
    <desc>Created with Sketch.</desc>
    <defs></defs>
    <g id="Page-1" stroke="none" stroke-width="1" fill="none" fill-rule="evenodd" sketch:type="MSPage">
        <g id="discogs_logo" sketch:type="MSLayerGroup" fill="#000000">
            <g id="Page-1" sketch:type="MSShapeGroup">
                <g id="discogs_400">
                    <path d="M0,0 L354.375,0 C465.75,10.75 585,26.375 675.5,98.25 C748.375,154.875 783.5,244.625 804.5,331.5 C829.75,440 840.5,551.75 841.25,663.125 C844.25,830.875 841.875,1000.875 801.125,1164.625 C781.25,1242.75 749.625,1321.375 689.875,1377.625 C607.125,1457.875 487.375,1485.75 375.125,1486 C250.125,1486.5 125,1486.25 0,1485.875 L0,0 L0,0 Z M301,164.375 C348.625,163.875 403.875,160 440.375,197 C500.5,255.625 507.875,345 519.5,423.75 C538.375,640.375 537,858.5 523.875,1075.5 C516.875,1143.125 520.375,1219.875 476.375,1276.25 C434.5,1327.75 362.125,1328.125 301.5,1326.625 C301.375,939.25 302.375,551.75 301,164.375 L301,164.375 Z" id="Shape"></path>
                    <path d="M900.25,9.75 C994,7.5 1087.875,8 1181.75,7.75 C1180.75,92.875 1181.625,178 1181.25,263.125 C1087.75,264.5 994.375,260 901.125,263.375 C900.375,178.875 902,94.25 900.25,9.75 L900.25,9.75 L900.25,9.75 Z" id="Shape"></path>
                    <path d="M1414.375,352.5 C1520,320.75 1642,325 1738.375,382.125 C1822.625,433 1857.375,535.5 1855.375,629.75 C1780.75,630 1706.25,629.5 1631.75,630.125 C1630,591.625 1620.625,548.75 1587,525.25 C1548.75,503.125 1490.5,514.25 1471.625,557 C1455.875,608.625 1472.75,666.375 1507.875,706.25 C1599.875,813.5 1724,889.875 1804.625,1007.375 C1865.375,1093.625 1872.875,1208.375 1843.625,1307.5 C1813.125,1410.125 1714.25,1479.625 1610.75,1493.375 C1509.625,1505.375 1397.5,1499 1312.25,1437.25 C1237.875,1382.25 1212.125,1285.75 1213.625,1197.125 C1288.625,1196.75 1363.625,1197.125 1438.625,1197 C1443.75,1235.125 1446.375,1283 1484.375,1304.25 C1515.25,1318.375 1555.125,1318.375 1584.75,1300.625 C1627.125,1267.125 1622.75,1200.375 1589.5,1161.875 C1499.625,1052 1370.5,979.625 1289.75,861.375 C1231.75,778.25 1224,672 1229.125,573.875 C1234.25,469.625 1317.125,382 1414.375,352.5 L1414.375,352.5 L1414.375,352.5 Z" id="Shape"></path>
                    <path d="M2164.125,344.625 C2275.875,318.625 2409.375,333.375 2493.375,418.375 C2518.625,447.875 2545.75,481.875 2550.25,521.5 C2511.375,569.875 2475.25,620.5 2447.625,676.5 C2407.5,676.25 2367.375,676.25 2327.25,676.375 C2324.625,626 2332.875,567.375 2300.125,525 C2261.5,489.125 2200.5,521.125 2191.25,568.375 C2172.875,641.375 2172.375,718 2169,792.875 C2168.375,940.625 2163.125,1089.125 2183,1236 C2185.625,1257 2193.625,1277.25 2205.75,1294.5 C2232.25,1331.25 2295.625,1331.875 2322,1294.625 C2336.625,1266.5 2339.625,1234.375 2343.5,1203.375 C2377.75,1203.375 2412,1203.375 2446.25,1202.875 C2470.875,1250.75 2498.375,1297.5 2533.875,1338.25 C2505.875,1401.5 2455.625,1455.5 2388.25,1476.125 C2269.25,1513.875 2122.875,1511.125 2026.75,1421.875 C1928.375,1330.25 1898.375,1191.125 1883.625,1062.75 C1873.875,887.875 1869.625,704.625 1939.875,540.375 C1979.375,445.5 2061.375,365.5 2164.125,344.625 L2164.125,344.625 L2164.125,344.625 Z" id="Shape"></path>
                    <path d="M3681.875,383 C3774.125,314.625 3905.25,320 4002.5,375.125 L4001.75,348.25 C4094.625,348.375 4187.625,348.375 4280.625,348.25 C4280.5,715.75 4280.5,1083.25 4280.625,1450.75 C4280.25,1511.625 4271.25,1574.375 4240.25,1627.75 C4199,1705.75 4120.375,1758.25 4036.875,1781.875 C3963.25,1798.375 3887.125,1790.375 3812.375,1791.875 C3735.25,1792.75 3659.5,1774.625 3589,1744.25 C3602,1692.75 3613,1640.625 3624.5,1588.875 C3708.5,1617.625 3797.5,1635.875 3886.5,1629.5 C3935.375,1627.625 3982.5,1598.375 4002.625,1553.375 C4027.25,1505.5 4020.125,1450.375 4021.75,1398.625 C3949.75,1464.625 3842.625,1469.375 3751.125,1453.5 C3649.875,1436.375 3578.25,1338.625 3565.25,1243 C3671.375,1050.5 3666.375,804.25 3551.875,616.625 C3570.25,528.375 3607.625,438.375 3681.875,383 L3681.875,383 Z M3875.125,525.625 C3915.5,507.5 3962.25,516.375 4002.5,530.625 C4001.5,779.625 4001.75,1028.5 4002.375,1277.5 C3962.125,1302 3907.125,1315.125 3865.5,1286.875 C3826,1248.5 3831.375,1188.125 3828.125,1137.875 C3816.625,983.75 3816.75,828.75 3828.75,674.625 C3832.5,623.875 3828.25,558.625 3875.125,525.625 L3875.125,525.625 Z" id="Shape"></path>
                    <path d="M4515.125,353.25 C4624.25,319.875 4752,324.375 4849.625,387.625 C4929.125,440.5 4957,538.875 4960.875,629.375 C4885.625,630.25 4810.5,629.5 4735.25,629.875 C4730.125,599.75 4730,566 4707.75,542.375 C4670.75,492.125 4577.125,512.125 4568.625,576 C4559.25,644.5 4602.75,705.125 4650.375,749.375 C4738,836.125 4841.5,908.75 4910.75,1012.625 C4967.5,1096.125 4974.125,1205.375 4948.5,1300.875 C4920.875,1403.125 4826,1476.125 4723.25,1491.625 C4615.875,1507 4494.125,1500 4405.875,1430 C4337.125,1373.75 4318.375,1281.375 4313.875,1197.125 C4390.375,1196.75 4466.875,1197.375 4543.375,1196.625 C4548.125,1226.125 4546.5,1259 4565.125,1284.125 C4591.375,1319.5 4644.125,1320.625 4681.375,1304.375 C4727,1275.75 4727.625,1207.125 4696.125,1167.5 C4612.25,1060.125 4489.875,990 4407,881.375 C4338.25,796 4325.5,680 4331,574.125 C4338.875,470.875 4417.5,382.75 4515.125,353.25 L4515.125,353.25 L4515.125,353.25 Z" id="Shape"></path>
                    <path d="M900.75,348.375 C994.25,348.25 1087.875,348.375 1181.375,348.25 C1181.125,727.625 1181.25,1107 1181.375,1486.375 C1087.75,1485.75 994,1486.625 900.375,1485.875 C901.625,1106.75 900.875,727.5 900.75,348.375 L900.75,348.375 L900.75,348.375 Z" id="Shape"></path>
                    <path d="M2734.75,423 C2909.5,326.125 3131.25,329.5 3305.375,426 C3291.75,451 3278,475.875 3264.5,501 C3118.625,416.25 2930,414.5 2781.625,494.25 C2660,555.375 2570.625,671.125 2532.125,800.625 C2511.375,864.625 2518.75,934.125 2494.5,997.25 L2515.875,941.125 C2512.75,1071.75 2563.75,1206.875 2662.125,1294.375 C2615.5,1239.75 2571.5,1181.25 2547.75,1112.75 C2522.25,1053 2527,987 2515.875,924.25 C2523.125,773.625 2598.875,624.375 2723.125,536.875 C2877.25,422 3097.25,408.375 3263.25,506 C3250.5,526.875 3237.75,548 3224.75,568.75 L3233.125,580.375 C3166.875,569.75 3107.375,526.625 3037.875,534.875 C2941,525.25 2844,558 2767.75,617.25 C2626.25,722.5 2568.25,927.5 2637.875,1090.25 C2658.75,1146.25 2694.25,1195.5 2735.125,1238.625 C2693,1282 2651.125,1325.625 2612.125,1371.75 C2482,1248.125 2409.875,1065.25 2429,885.875 C2444.75,693.25 2564.875,514.125 2734.75,423 L2734.75,423 L2734.75,423 Z" id="Shape"></path>
                    <path d="M3244.75,712.375 C3308.25,649.875 3367.375,582.75 3426.875,516.375 C3538,626.625 3606.25,779.5 3607,936.625 C3608.625,1113.625 3526,1288.875 3387.5,1399.5 C3207.25,1549.25 2935.25,1575.25 2731.75,1457 C2746.875,1432.75 2761.25,1408 2774.375,1382.625 C2823.75,1411.25 2880.375,1431.75 2938.125,1432.375 C2893.125,1422.375 2847.75,1413.125 2805.625,1393.375 C2798,1385.125 2790.375,1376.875 2782.5,1368.875 C2794.375,1348.5 2805.875,1328 2815.75,1306.625 C2823.75,1307.375 2839.5,1308.875 2847.5,1309.625 C2925.25,1354.25 3019.375,1349.25 3105.375,1339 C3256.125,1308.875 3380.25,1183.75 3414.75,1034.75 C3449.375,903.375 3406.375,754.75 3310.375,659.5 C3370.5,735.625 3421.125,825.875 3420.875,925.5 C3429.625,1073.75 3343.125,1219.625 3215,1292 C3097.5,1355.625 2939.875,1366.25 2826.125,1289.25 C2838.625,1269.25 2850.875,1249.25 2863.125,1229.125 L2852.75,1223.125 C2866.25,1222.875 2879.625,1223 2893.125,1223.375 C2966.375,1263.5 3058.375,1260.5 3134.625,1229.625 C3235.125,1190.25 3309.125,1094.375 3326.5,988.5 C3332,918.125 3327.75,837.75 3282.5,780.625 C3269.375,758.125 3258.625,734.375 3244.75,712.375 L3244.75,712.375 L3244.75,712.375 Z" id="Shape"></path>
                    <path d="M2675.25,727 C2765.625,576.875 2960,502.125 3127.75,552.375 C3158.375,562.5 3187.375,577 3218.125,586.875 C3202.25,612.5 3188,639.125 3175.25,666.375 C3066.625,613.875 2924,613.875 2827.5,692.625 C2722.875,768.75 2681.625,912.25 2719.125,1034.25 C2731.875,1072.625 2754.875,1106.375 2774.5,1141.5 C2783.5,1148.75 2792.75,1155.875 2802.125,1162.75 C2783,1185.5 2763.125,1207.625 2743.75,1230.25 C2597.625,1112.25 2574.375,881.375 2675.25,727 L2675.25,727 L2675.25,727 Z" id="Shape"></path>
                    <path d="M2818.875,705.875 C2910,624.5 3044.75,616.375 3154.75,661.125 C3157.5,670.875 3160.375,680.625 3163.125,690.375 C3149.875,709.875 3138.25,730.5 3127.125,751.25 C3068.75,720.75 2997.375,712.75 2935.75,738.5 C2852.375,771.125 2793,859.75 2800.75,950.125 C2799.375,1005.875 2828.625,1056.75 2865.125,1096.875 C2846.875,1116.375 2828.625,1136.125 2811.75,1156.875 C2667.375,1052 2683.125,812.125 2818.875,705.875 L2818.875,705.875 L2818.875,705.875 Z" id="Shape"></path>
                    <path d="M3174.25,788.75 C3195.625,767.25 3216.25,745.125 3237.375,723.375 C3247.75,738.375 3258.5,753 3269.125,767.875 C3275,782.125 3281,796.875 3294,806.25 C3324.625,861.875 3326,925.875 3322.375,987.625 C3303.125,1108.625 3205.75,1212.625 3086.375,1240.125 C3012.625,1263.625 2937.875,1238.375 2868.5,1213.75 C2884.875,1187.625 2900.25,1160.75 2915.25,1133.875 C3000.5,1176.125 3112.625,1161 3176.375,1088 C3255.5,1008 3251.875,868.625 3174.25,788.75 L3174.25,788.75 L3174.25,788.75 Z" id="Shape"></path>
                    <path d="M2994.375,771.625 C3061.75,762.625 3133.625,798.125 3165.25,858.875 C3190.625,896.75 3180,944 3180.25,986.625 C3156,1082 3043.5,1133.5 2954.125,1096.875 C2874.375,1067.875 2825.375,969.375 2856.25,889.25 C2873.875,826.75 2931.375,781.75 2994.375,771.625 L2994.375,771.625 Z M2975.75,786.875 C3069.5,757.125 3177.25,839.25 3174.25,937.5 C3179.25,1023.5 3099.375,1103.25 3013.375,1097.25 C2921,1099.125 2841.375,1003.5 2860.5,913.125 C2871.5,854 2919.125,804.875 2975.75,786.875 L2975.75,786.875 Z" id="Shape"></path>
                    <path d="M2981.125,938.5 C2995.36654,921.875 3014.35526,913.5 3036.09235,913.75 C3042.46356,930.75 3042.83834,948.625 3039.7152,966.375 C3015.47959,968 2992.49325,962.5 2981.125,938.5 L2981.125,938.5 L2981.125,938.5 Z" id="Shape"></path>
                </g>
            </g>
        </g>
    </g>
</svg>