<?xml version="1.0" encoding="UTF-8" standalone="no"?>
<svg width="398px" height="144px" viewBox="0 0 398 144" version="1.1" xmlns="http://www.w3.org/2000/svg" xmlns:xlink="http://www.w3.org/1999/xlink" xmlns:sketch="http://www.bohemiancoding.com/sketch/ns">
    <!-- Generator: Sketch 3.5.2 (25235) - http://www.bohemiancoding.com/sketch -->
    <title>discogs_400_1</title>
    <desc>Created with Sketch.</desc>
    <defs></defs>
    <g id="Page-1" stroke="none" stroke-width="1" fill="none" fill-rule="evenodd" sketch:type="MSPage">
        <g id="discogs_400" sketch:type="MSLayerGroup" fill="#000000">
            <path d="M0,0 L28.35,0 C37.26,0.86 46.8,2.11 54.04,7.86 C59.87,12.39 62.68,19.57 64.36,26.52 C66.38,35.2 67.24,44.14 67.3,53.05 C67.54,66.47 67.35,80.07 64.09,93.17 C62.5,99.42 59.97,105.71 55.19,110.21 C48.57,116.63 38.99,118.86 30.01,118.88 C20.01,118.92 10,118.9 0,118.87 L0,0 Z M24.08,13.15 C27.89,13.11 32.31,12.8 35.23,15.76 C40.04,20.45 40.63,27.6 41.56,33.9 C43.07,51.23 42.96,68.68 41.91,86.04 C41.35,91.45 41.63,97.59 38.11,102.1 C34.76,106.22 28.97,106.25 24.12,106.13 C24.11,75.14 24.19,44.14 24.08,13.15 Z" id="Shape" sketch:type="MSShapeGroup"></path>
            <path d="M72.02,0.78 C79.52,0.6 87.03,0.64 94.54,0.62 C94.46,7.43 94.53,14.24 94.5,21.05 C87.02,21.16 79.55,20.8 72.09,21.07 C72.03,14.31 72.16,7.54 72.02,0.78 L72.02,0.78 Z" id="Shape" sketch:type="MSShapeGroup"></path>
            <path d="M113.15,28.2 C121.6,25.66 131.36,26 139.07,30.57 C145.81,34.64 148.59,42.84 148.43,50.38 C142.46,50.4 136.5,50.36 130.54,50.41 C130.4,47.33 129.65,43.9 126.96,42.02 C123.9,40.25 119.24,41.14 117.73,44.56 C116.47,48.69 117.82,53.31 120.63,56.5 C127.99,65.08 137.92,71.19 144.37,80.59 C149.23,87.49 149.83,96.67 147.49,104.6 C145.05,112.81 137.14,118.37 128.86,119.47 C120.77,120.43 111.8,119.92 104.98,114.98 C99.03,110.58 96.97,102.86 97.09,95.77 C103.09,95.74 109.09,95.77 115.09,95.76 C115.5,98.81 115.71,102.64 118.75,104.34 C121.22,105.47 124.41,105.47 126.78,104.05 C130.17,101.37 129.82,96.03 127.16,92.95 C119.97,84.16 109.64,78.37 103.18,68.91 C98.54,62.26 97.92,53.76 98.33,45.91 C98.74,37.57 105.37,30.56 113.15,28.2 L113.15,28.2 Z" id="Shape" sketch:type="MSShapeGroup"></path>
            <path d="M173.13,27.57 C182.07,25.49 192.75,26.67 199.47,33.47 C201.49,35.83 203.66,38.55 204.02,41.72 C200.91,45.59 198.02,49.64 195.81,54.12 C192.6,54.1 189.39,54.1 186.18,54.11 C185.97,50.08 186.63,45.39 184.01,42 C180.92,39.13 176.04,41.69 175.3,45.47 C173.83,51.31 173.79,57.44 173.52,63.43 C173.47,75.25 173.05,87.13 174.64,98.88 C174.85,100.56 175.49,102.18 176.46,103.56 C178.58,106.5 183.65,106.55 185.76,103.57 C186.93,101.32 187.17,98.75 187.48,96.27 C190.22,96.27 192.96,96.27 195.7,96.23 C197.67,100.06 199.87,103.8 202.71,107.06 C200.47,112.12 196.45,116.44 191.06,118.09 C181.54,121.11 169.83,120.89 162.14,113.75 C154.27,106.42 151.87,95.29 150.69,85.02 C149.91,71.03 149.57,56.37 155.19,43.23 C158.35,35.64 164.91,29.24 173.13,27.57 L173.13,27.57 Z" id="Shape" sketch:type="MSShapeGroup"></path>
            <path d="M294.55,30.64 C301.93,25.17 312.42,25.6 320.2,30.01 L320.14,27.86 C327.57,27.87 335.01,27.87 342.45,27.86 C342.44,57.26 342.44,86.66 342.45,116.06 C342.42,120.93 341.7,125.95 339.22,130.22 C335.92,136.46 329.63,140.66 322.95,142.55 C317.06,143.87 310.97,143.23 304.99,143.35 C298.82,143.42 292.76,141.97 287.12,139.54 C288.16,135.42 289.04,131.25 289.96,127.11 C296.68,129.41 303.8,130.87 310.92,130.36 C314.83,130.21 318.6,127.87 320.21,124.27 C322.18,120.44 321.61,116.03 321.74,111.89 C315.98,117.17 307.41,117.55 300.09,116.28 C291.99,114.91 286.26,107.09 285.22,99.44 C293.71,84.04 293.31,64.34 284.15,49.33 C285.62,42.27 288.61,35.07 294.55,30.64 Z M310.01,42.05 C313.24,40.6 316.98,41.31 320.2,42.45 C320.12,62.37 320.14,82.28 320.19,102.2 C316.97,104.16 312.57,105.21 309.24,102.95 C306.08,99.88 306.51,95.05 306.25,91.03 C305.33,78.7 305.34,66.3 306.3,53.97 C306.6,49.91 306.26,44.69 310.01,42.05 Z" id="Shape" sketch:type="MSShapeGroup"></path>
            <path d="M361.21,28.26 C369.94,25.59 380.16,25.95 387.97,31.01 C394.33,35.24 396.56,43.11 396.87,50.35 C390.85,50.42 384.84,50.36 378.82,50.39 C378.41,47.98 378.4,45.28 376.62,43.39 C373.66,39.37 366.17,40.97 365.49,46.08 C364.74,51.56 368.22,56.41 372.03,59.95 C379.04,66.89 387.32,72.7 392.86,81.01 C397.4,87.69 397.93,96.43 395.88,104.07 C393.67,112.25 386.08,118.09 377.86,119.33 C369.27,120.56 359.53,120 352.47,114.4 C346.97,109.9 345.47,102.51 345.11,95.77 C351.23,95.74 357.35,95.79 363.47,95.73 C363.85,98.09 363.72,100.72 365.21,102.73 C367.31,105.56 371.53,105.65 374.51,104.35 C378.16,102.06 378.21,96.57 375.69,93.4 C368.98,84.81 359.19,79.2 352.56,70.51 C347.06,63.68 346.04,54.4 346.48,45.93 C347.11,37.67 353.4,30.62 361.21,28.26 L361.21,28.26 Z" id="Shape" sketch:type="MSShapeGroup"></path>
            <path d="M72.06,27.87 C79.54,27.86 87.03,27.87 94.51,27.86 C94.49,58.21 94.5,88.56 94.51,118.91 C87.02,118.86 79.52,118.93 72.03,118.87 C72.13,88.54 72.07,58.2 72.06,27.87 L72.06,27.87 Z" id="Shape" sketch:type="MSShapeGroup"></path>
            <path d="M218.78,33.84 C232.76,26.09 250.5,26.36 264.43,34.08 C263.34,36.08 262.24,38.07 261.16,40.08 C249.49,33.3 234.4,33.16 222.53,39.54 C212.8,44.43 205.65,53.69 202.57,64.05 C200.91,69.17 201.5,74.73 199.56,79.78 L201.27,75.29 C201.02,85.74 205.1,96.55 212.97,103.55 C209.24,99.18 205.72,94.5 203.82,89.02 C201.78,84.24 202.16,78.96 201.27,73.94 C201.85,61.89 207.91,49.95 217.85,42.95 C230.18,33.76 247.78,32.67 261.06,40.48 C260.04,42.15 259.02,43.84 257.98,45.5 L258.65,46.43 C253.35,45.58 248.59,42.13 243.03,42.79 C235.28,42.02 227.52,44.64 221.42,49.38 C210.1,57.8 205.46,74.2 211.03,87.22 C212.7,91.7 215.54,95.64 218.81,99.09 C215.44,102.56 212.09,106.05 208.97,109.74 C198.56,99.85 192.79,85.22 194.32,70.87 C195.58,55.46 205.19,41.13 218.78,33.84 L218.78,33.84 Z" id="Shape" sketch:type="MSShapeGroup"></path>
            <path d="M259.58,56.99 C264.66,51.99 269.39,46.62 274.15,41.31 C283.04,50.13 288.5,62.36 288.56,74.93 C288.69,89.09 282.08,103.11 271,111.96 C256.58,123.94 234.82,126.02 218.54,116.56 C219.75,114.62 220.9,112.64 221.95,110.61 C225.9,112.9 230.43,114.54 235.05,114.59 C231.45,113.79 227.82,113.05 224.45,111.47 C223.84,110.81 223.23,110.15 222.6,109.51 C223.55,107.88 224.47,106.24 225.26,104.53 C225.9,104.59 227.16,104.71 227.8,104.77 C234.02,108.34 241.55,107.94 248.43,107.12 C260.49,104.71 270.42,94.7 273.18,82.78 C275.95,72.27 272.51,60.38 264.83,52.76 C269.64,58.85 273.69,66.07 273.67,74.04 C274.37,85.9 267.45,97.57 257.2,103.36 C247.8,108.45 235.19,109.3 226.09,103.14 C227.09,101.54 228.07,99.94 229.05,98.33 L228.22,97.85 C229.3,97.83 230.37,97.84 231.45,97.87 C237.31,101.08 244.67,100.84 250.77,98.37 C258.81,95.22 264.73,87.55 266.12,79.08 C266.56,73.45 266.22,67.02 262.6,62.45 C261.55,60.65 260.69,58.75 259.58,56.99 L259.58,56.99 Z" id="Shape" sketch:type="MSShapeGroup"></path>
            <path d="M214.02,58.16 C221.25,46.15 236.8,40.17 250.22,44.19 C252.67,45 254.99,46.16 257.45,46.95 C256.18,49 255.04,51.13 254.02,53.31 C245.33,49.11 233.92,49.11 226.2,55.41 C217.83,61.5 214.53,72.98 217.53,82.74 C218.55,85.81 220.39,88.51 221.96,91.32 C222.68,91.9 223.42,92.47 224.17,93.02 C222.64,94.84 221.05,96.61 219.5,98.42 C207.81,88.98 205.95,70.51 214.02,58.16 L214.02,58.16 Z" id="Shape" sketch:type="MSShapeGroup"></path>
            <path d="M225.51,56.47 C232.8,49.96 243.58,49.31 252.38,52.89 C252.6,53.67 252.83,54.45 253.05,55.23 C251.99,56.79 251.06,58.44 250.17,60.1 C245.5,57.66 239.79,57.02 234.86,59.08 C228.19,61.69 223.44,68.78 224.06,76.01 C223.95,80.47 226.29,84.54 229.21,87.75 C227.75,89.31 226.29,90.89 224.94,92.55 C213.39,84.16 214.65,64.97 225.51,56.47 L225.51,56.47 Z" id="Shape" sketch:type="MSShapeGroup"></path>
            <path d="M253.94,63.1 C255.65,61.38 257.3,59.61 258.99,57.87 C259.82,59.07 260.68,60.24 261.53,61.43 C262,62.57 262.48,63.75 263.52,64.5 C265.97,68.95 266.08,74.07 265.79,79.01 C264.25,88.69 256.46,97.01 246.91,99.21 C241.01,101.09 235.03,99.07 229.48,97.1 C230.79,95.01 232.02,92.86 233.22,90.71 C240.04,94.09 249.01,92.88 254.11,87.04 C260.44,80.64 260.15,69.49 253.94,63.1 L253.94,63.1 Z" id="Shape" sketch:type="MSShapeGroup"></path>
            <path d="M239.55,61.73 C244.94,61.01 250.69,63.85 253.22,68.71 C255.25,71.74 254.4,75.52 254.42,78.93 C252.48,86.56 243.48,90.68 236.33,87.75 C229.95,85.43 226.03,77.55 228.5,71.14 C229.91,66.14 234.51,62.54 239.55,61.73 Z M238.06,62.95 C245.56,60.57 254.18,67.14 253.94,75 C254.34,81.88 247.95,88.26 241.07,87.78 C233.68,87.93 227.31,80.28 228.84,73.05 C229.72,68.32 233.53,64.39 238.06,62.95 Z" id="Shape" sketch:type="MSShapeGroup"></path>
            <path d="M238.49,75.08 C239.63,73.75 241.15,73.08 242.89,73.1 C243.4,74.46 243.43,75.89 243.18,77.31 C241.24,77.44 239.4,77 238.49,75.08 L238.49,75.08 Z" id="Shape" sketch:type="MSShapeGroup"></path>
        </g>
    </g>
</svg>