<?xml version="1.0" encoding="utf-8"?>
<!-- Generator: Adobe Illustrator 19.2.1, SVG Export Plug-In . SVG Version: 6.00 Build 0)  -->
<svg version="1.1" id="Слой_1" xmlns="http://www.w3.org/2000/svg" xmlns:xlink="http://www.w3.org/1999/xlink" x="0px" y="0px"
	 viewBox="0 0 25.2 34.5" style="enable-background:new 0 0 25.2 34.5;" xml:space="preserve">
<style type="text/css">
	.st0{fill-rule:evenodd;clip-rule:evenodd;fill:#333333;}
</style>
<path class="st0" d="M23.2,4c-0.8-0.2-2.3,1-3.4,1.2c-1.1,0.2-1.9-0.2-1.9,0.8h0c0,0,0.9,8.6,1.3,12.2c1.3,10.3-2.4,16.4-8.5,16.4
	c-8.4,0-10.2-6.3-10.7-9.2c-0.2-1.1,0.5-1.1,1.7-0.7c0.4,0.1,0.9,0.1,1.4,0.1c2.7,0,2.2-2.2,6.8-2.4c1,0,2,0.2,2.9,0.6
	c2,0.8,3-0.5,3.2-1.5c0.2-1,0.3-2.3,0.4-3.5c0-3.4-0.9-12.3-0.9-12.3h0c0-1-0.7-4.1,1.9-4.9C20-0.1,23-0.5,23,0.9c0,1.4,0,1,1.4,2.1
	C25.8,4.2,25.3,4.5,23.2,4z M21.8,1.6c0-0.2-0.1-0.3-0.3-0.3c-0.2,0-0.3,0.1-0.3,0.3c0,0.2,0.1,0.3,0.3,0.3
	C21.6,1.9,21.8,1.8,21.8,1.6z"/>
</svg>
