<?xml version="1.0" encoding="UTF-8" standalone="no"?>
<svg width="1262px" height="1731px" viewBox="0 0 1262 1731" version="1.1" xmlns="http://www.w3.org/2000/svg" xmlns:xlink="http://www.w3.org/1999/xlink" xmlns:sketch="http://www.bohemiancoding.com/sketch/ns">
    <!-- Generator: Sketch 3.5.2 (25235) - http://www.bohemiancoding.com/sketch -->
    <title>logo</title>
    <desc>Created with Sketch.</desc>
    <defs></defs>
    <g id="Page-1" stroke="none" stroke-width="1" fill="none" fill-rule="evenodd" sketch:type="MSPage">
        <g id="logo" sketch:type="MSLayerGroup" transform="translate(-48.000000, -49.000000)" fill="#333333">
            <path d="M1210,250 C1170,240 1095,300 1040,310 C985,320 945,300 945,350 L945,350 C945,350 990,780 1010,960 C1075,1475 890,1780 585,1780 C165,1780 75,1465 50,1320 C40,1265 75,1265 135,1285 C155,1290 180,1290 205,1290 C340,1290 315,1180 545,1170 C595,1170 645,1180 690,1200 C790,1240 840,1175 850,1125 C860,1075 865,1010 870,950 C870,780 825,335 825,335 L825,335 C825,285 790,130 920,90 C1050,45 1200,25 1200,95 C1200,165 1200,145 1270,200 C1340,260 1315,275 1210,250 L1210,250 Z M1140,130 C1140,120 1135,115 1125,115 C1115,115 1110,120 1110,130 C1110,140 1115,145 1125,145 C1130,145 1140,140 1140,130 L1140,130 Z" id="Shape" sketch:type="MSShapeGroup"></path>
        </g>
    </g>
</svg>