<?xml version="1.0" standalone="no"?>
<!DOCTYPE svg PUBLIC "-//W3C//DTD SVG 1.1//EN" "http://www.w3.org/Graphics/SVG/1.1/DTD/svg11.dtd" >
<svg xmlns="http://www.w3.org/2000/svg" xmlns:xlink="http://www.w3.org/1999/xlink" version="1.1" viewBox="0 -150 1713 1000">
  <g transform="matrix(1 0 0 -1 0 850)">
   <path fill="currentColor"
d="M1535 235q-9 112 -93 210l-79 -67q43 -29 60 -98q16 -64 3 -130q-15 -70 -56 -102l73 -70q45 48 69 109q29 72 23 148zM1711 254q-11 157 -137 303l-77 -65q112 -132 115 -276q2 -84 -32 -165q-32 -73 -83 -124l73 -68q71 69 108 163q42 108 33 232zM1364 238
q-11 93 -80 149q-65 54 -169 65q-1 105 -46.5 192.5t-123.5 140.5q-80 55 -178 62q-162 12 -271 -69q-89 -67 -146 -201q-96 6 -171 -29q-66 -32 -112 -94q-50 -67 -58 -153q-8 -83 25 -160.5t98 -127.5q71 -54 162 -60q61 -4 139 -5q49 0 143 2q97 2 143 2h212q24 0 74 -1
q47 -1 72 -1q38 0 67 3q65 6 118.5 44t81.5 99q29 65 20 142zM1128 53h-200h-634q-42 0 -87 33q-42 31 -70 79q-29 50 -30 98q-1 62 32 114q31 49 84.5 76t110.5 23q62 -4 113 -43l66 79q-11 11 -29 23q-10 6 -32 18q35 85 93 134q66 55 161 61q80 6 151 -33
q67 -36 110 -102.5t47 -141.5q6 -82 -35 -153q18 -11 43 -24q-427 228 45 -24q23 36 34 82q54 3 93 -28q35 -27 49 -73q15 -45 6 -91t-38 -75q-33 -32 -83 -32z" />
  </g>

</svg>
